<svg width="24" height="24" viewBox="0 0 24 24" fill="none" xmlns="http://www.w3.org/2000/svg">
<path d="M9.91659 12.2409L17.6645 6.85076L18.8439 8.14667L12.7499 15.3541L9.91659 12.2409ZM7.58648 12.6521L12.1218 17.6354C12.2157 17.7284 12.3283 17.8004 12.452 17.8467C12.5758 17.893 12.708 17.9125 12.8399 17.9039C12.9718 17.8953 13.1003 17.8588 13.2171 17.7969C13.3338 17.7349 13.4361 17.6489 13.5171 17.5445L20.9685 8.73151C21.1169 8.5684 21.201 8.35684 21.2049 8.13632C21.2088 7.91581 21.1324 7.7014 20.9898 7.53311L18.4768 4.77195C18.3227 4.61422 18.1164 4.51798 17.8965 4.50118C17.6766 4.48437 17.4581 4.54816 17.2817 4.68063L7.80807 11.2715C7.69651 11.3423 7.60126 11.4361 7.5286 11.5465C7.45595 11.6569 7.40755 11.7814 7.38661 11.9119C7.36567 12.0424 7.37265 12.1759 7.40711 12.3035C7.44156 12.4311 7.5027 12.5499 7.58648 12.6521V12.6521ZM2.79297 18.5278L8.41033 19.5001L9.88946 18.1539L6.86057 14.8259L2.79297 18.5278Z" fill="black"/>
</svg>
